<svg width="24" height="25" viewBox="0 0 24 25" fill="none" xmlns="http://www.w3.org/2000/svg">
<g clip-path="url(#clip0_363_2038)">
<path d="M22.2234 0.835938H1.77187C0.792187 0.835938 0 1.60938 0 2.56563V23.1016C0 24.0578 0.792187 24.8359 1.77187 24.8359H22.2234C23.2031 24.8359 24 24.0578 24 23.1063V2.56563C24 1.60938 23.2031 0.835938 22.2234 0.835938ZM7.12031 21.2875H3.55781V9.83125H7.12031V21.2875ZM5.33906 8.27031C4.19531 8.27031 3.27188 7.34687 3.27188 6.20781C3.27188 5.06875 4.19531 4.14531 5.33906 4.14531C6.47813 4.14531 7.40156 5.06875 7.40156 6.20781C7.40156 7.34219 6.47813 8.27031 5.33906 8.27031ZM20.4516 21.2875H16.8937V15.7188C16.8937 14.3922 16.8703 12.6812 15.0422 12.6812C13.1906 12.6812 12.9094 14.1297 12.9094 15.625V21.2875H9.35625V9.83125H12.7687V11.3969H12.8156C13.2891 10.4969 14.4516 9.54531 16.1813 9.54531C19.7859 9.54531 20.4516 11.9172 20.4516 15.0016V21.2875Z" fill="white"/>
</g>
<defs>
<clipPath id="clip0_363_2038">
<rect width="24" height="24" fill="white" transform="translate(0 0.835938)"/>
</clipPath>
</defs>
</svg>
