<svg width="18" height="18" viewBox="0 0 18 18" fill="none" xmlns="http://www.w3.org/2000/svg">
<path d="M12.5559 11.406L12.1009 11.859C12.1009 11.859 11.0179 12.935 8.06288 9.99698C5.10788 7.05898 6.19088 5.98298 6.19088 5.98298L6.47688 5.69698C7.18388 4.99498 7.25088 3.86698 6.63388 3.04298L5.37388 1.35998C4.60988 0.339979 3.13488 0.20498 2.25988 1.07498L0.68988 2.63498C0.25688 3.06698 -0.0331206 3.62498 0.00187944 4.24498C0.0918794 5.83198 0.809879 9.24498 4.81388 13.227C9.06088 17.449 13.0459 17.617 14.6749 17.465C15.1909 17.417 15.6389 17.155 15.9999 16.795L17.4199 15.383C18.3799 14.43 18.1099 12.795 16.8819 12.128L14.9719 11.089C14.1659 10.652 13.1859 10.78 12.5559 11.406Z" fill="white"/>
</svg>
